<svg width="44" height="44" viewBox="0 0 44 44" fill="none" xmlns="http://www.w3.org/2000/svg">
<path d="M34.375 38.5H25.8741C27.3021 37.2249 28.6488 35.8616 29.9062 34.418C34.6242 28.9919 37.125 23.2719 37.125 17.875C37.125 13.8636 35.5315 10.0165 32.695 7.18001C29.8585 4.34352 26.0114 2.75 22 2.75C17.9886 2.75 14.1415 4.34352 11.305 7.18001C8.46852 10.0165 6.875 13.8636 6.875 17.875C6.875 23.2719 9.36891 28.9919 14.0938 34.418C15.3512 35.8616 16.6979 37.2249 18.1259 38.5H9.625C9.26033 38.5 8.91059 38.6449 8.65273 38.9027C8.39487 39.1606 8.25 39.5103 8.25 39.875C8.25 40.2397 8.39487 40.5894 8.65273 40.8473C8.91059 41.1051 9.26033 41.25 9.625 41.25H34.375C34.7397 41.25 35.0894 41.1051 35.3473 40.8473C35.6051 40.5894 35.75 40.2397 35.75 39.875C35.75 39.5103 35.6051 39.1606 35.3473 38.9027C35.0894 38.6449 34.7397 38.5 34.375 38.5ZM9.625 17.875C9.625 14.5929 10.9288 11.4453 13.2496 9.12455C15.5703 6.80379 18.7179 5.5 22 5.5C25.2821 5.5 28.4297 6.80379 30.7504 9.12455C33.0712 11.4453 34.375 14.5929 34.375 17.875C34.375 27.7114 24.8411 35.9219 22 38.1562C19.1589 35.9219 9.625 27.7114 9.625 17.875ZM28.875 17.875C28.875 16.5153 28.4718 15.186 27.7164 14.0555C26.9609 12.9249 25.8872 12.0437 24.6309 11.5233C23.3747 11.003 21.9924 10.8668 20.6588 11.1321C19.3251 11.3974 18.1001 12.0522 17.1386 13.0136C16.1772 13.9751 15.5224 15.2001 15.2571 16.5338C14.9918 17.8674 15.128 19.2497 15.6483 20.5059C16.1687 21.7622 17.0499 22.8359 18.1805 23.5914C19.311 24.3468 20.6403 24.75 22 24.75C23.8234 24.75 25.572 24.0257 26.8614 22.7364C28.1507 21.447 28.875 19.6984 28.875 17.875ZM17.875 17.875C17.875 17.0592 18.1169 16.2616 18.5702 15.5833C19.0234 14.9049 19.6677 14.3762 20.4214 14.064C21.1752 13.7518 22.0046 13.6701 22.8047 13.8293C23.6049 13.9884 24.3399 14.3813 24.9168 14.9582C25.4937 15.5351 25.8866 16.2701 26.0457 17.0703C26.2049 17.8704 26.1232 18.6998 25.811 19.4536C25.4988 20.2073 24.9701 20.8516 24.2917 21.3048C23.6134 21.7581 22.8158 22 22 22C20.906 22 19.8568 21.5654 19.0832 20.7918C18.3096 20.0182 17.875 18.969 17.875 17.875Z" fill="#E95568"/>
</svg>
